<svg width="45" height="39" viewBox="0 0 45 39" fill="none" xmlns="http://www.w3.org/2000/svg">
<g clip-path="url(#clip0)">
<path d="M4.29322 16.302C4.36917 16.302 4.4459 16.2989 4.5207 16.2924C4.59338 16.2862 4.65908 16.2469 4.69896 16.1856C4.73907 16.1242 4.74908 16.0478 4.72603 15.9781C4.6767 15.8283 4.63201 15.6779 4.58765 15.5282C4.48507 15.1824 4.37903 14.8253 4.21921 14.4925C4.06352 14.1677 3.8553 13.8737 3.65376 13.5891C3.56804 13.4679 3.48216 13.3466 3.40069 13.2235C3.39472 13.2144 3.38812 13.2058 3.38099 13.1976L2.52376 12.2206C2.51926 12.2154 2.51421 12.2103 2.50925 12.2055C1.89864 11.6217 1.17041 11.4305 0.264995 11.3232C0.255686 11.322 0.246454 11.3215 0.237456 11.3215C0.178574 11.3215 0.121321 11.3436 0.0774897 11.3841C0.0266761 11.4308 -0.00156234 11.4976 6.67951e-05 11.5669C0.0565435 13.9123 2.22298 16.302 4.29322 16.302Z" fill="white"/>
<path d="M5.55902 0.54565C5.5483 0.544161 5.53738 0.543457 5.5269 0.543457C5.47089 0.543457 5.41627 0.563344 5.37315 0.60053C4.44872 1.39322 3.83507 2.69605 3.73159 4.08531C3.64307 5.27284 3.94835 6.36647 4.56912 7.08596C4.61419 7.13818 4.67951 7.16808 4.74809 7.16808C4.74856 7.16808 4.74926 7.16808 4.74972 7.16808C4.81908 7.16761 4.88455 7.13669 4.92916 7.0833C6.81236 4.83808 7.07969 2.67327 5.72325 0.648757C5.68578 0.592389 5.62597 0.554966 5.55902 0.54565Z" fill="white"/>
<path d="M4.14797 12.2166C4.17007 12.2234 4.19288 12.2267 4.2156 12.2267C4.25549 12.2267 4.29535 12.2164 4.33097 12.1965C4.38674 12.1651 4.42786 12.1124 4.44469 12.0504C5.14429 9.46973 4.08792 6.90251 1.98726 6.07865C1.95949 6.06786 1.93031 6.06238 1.9013 6.06238C1.86336 6.06238 1.82535 6.07146 1.79091 6.08994C1.73016 6.12204 1.68626 6.17934 1.67035 6.2466C1.04678 8.89196 2.18121 11.6261 4.14797 12.2166Z" fill="white"/>
<path d="M4.38892 20.8921C4.46533 20.8921 4.54228 20.8886 4.6173 20.8822C4.6861 20.8761 4.7488 20.8402 4.78936 20.7837C4.82978 20.727 4.84374 20.6556 4.82784 20.5879C4.58595 19.565 4.33165 18.6536 3.68341 17.8887C2.84992 16.4142 1.41325 16.0682 0.404584 15.9362C0.394344 15.9347 0.384181 15.9343 0.374173 15.9343C0.315989 15.9343 0.25928 15.9559 0.215371 15.9956C0.163859 16.0424 0.135155 16.1095 0.136785 16.1794C0.190003 18.5138 2.33619 20.8921 4.38892 20.8921Z" fill="white"/>
<path d="M15.7288 33.7856C15.7219 33.7155 15.6847 33.6521 15.6274 33.6121C14.6494 32.9319 13.4788 32.5575 12.3315 32.5575C10.9991 32.5575 9.84989 33.0629 9.17829 33.944C9.13942 33.9953 9.12252 34.0599 9.13152 34.1239C9.14052 34.1879 9.17471 34.2454 9.22646 34.2835C10.1174 34.9405 11.2291 35.3022 12.3571 35.3022C13.6531 35.3022 14.8582 34.8188 15.6637 33.9755C15.7119 33.9249 15.7359 33.8556 15.7288 33.7856Z" fill="white"/>
<path d="M11.9839 31.2891C11.9844 31.2166 11.9523 31.1476 11.8968 31.1019C10.8111 30.2071 9.52335 29.7144 8.27085 29.7144C7.16537 29.7144 6.18711 30.0893 5.44166 30.7984C5.3928 30.8448 5.36571 30.9104 5.36712 30.9781C5.36851 31.0459 5.39845 31.1099 5.44949 31.1541C6.44513 32.0204 7.68762 32.4974 8.94841 32.4974C10.0421 32.4974 11.0609 32.1438 11.8944 31.4747C11.9506 31.4298 11.9834 31.3615 11.9839 31.2891Z" fill="white"/>
<path d="M6.7535 25.3604C6.81827 25.3427 6.87298 25.2982 6.90331 25.2377C6.93371 25.1774 6.93744 25.1066 6.91346 25.0432C6.48764 23.9224 5.81388 23.127 4.85416 22.6119L4.82213 22.5905L4.34447 22.2735C3.82959 21.8861 3.24225 21.7053 2.4971 21.7053C2.11404 21.7053 1.72281 21.7518 1.32204 21.8038C1.25105 21.813 1.18814 21.8539 1.15044 21.9152C1.11273 21.9766 1.10466 22.0518 1.12786 22.1198C1.78829 24.041 3.78235 25.4895 5.76617 25.4895C6.10634 25.4894 6.43845 25.4459 6.7535 25.3604Z" fill="white"/>
<path d="M6.04404 7.30073C5.92247 7.52574 5.88834 7.77627 5.8553 8.01873C5.84125 8.12105 5.82823 8.21782 5.80875 8.30934C5.79549 8.37237 5.80805 8.43797 5.84319 8.49145C5.87833 8.54508 5.93365 8.58196 5.9961 8.59416C6.09222 8.61288 6.19215 8.64161 6.29834 8.67206C6.49772 8.7293 6.70377 8.78849 6.91416 8.78849C6.97513 8.78849 7.03425 8.78348 7.09034 8.77315C8.50451 8.51776 9.67717 7.76334 10.5755 6.53051C10.7034 6.35491 10.7806 6.15034 10.855 5.95241C10.8888 5.86309 10.9236 5.7703 10.9633 5.68028C10.99 5.61944 10.9904 5.55015 10.9645 5.48909C10.9386 5.42802 10.8885 5.38058 10.8266 5.35803C10.4793 5.2323 10.1023 5.16833 9.70611 5.16833C8.22848 5.16833 6.72246 6.04511 6.04404 7.30073Z" fill="white"/>
<path d="M8.21343 25.9113C8.24524 25.9113 8.27727 25.9047 8.30792 25.8912C9.57989 25.333 9.9421 24.1852 10.1038 23.3709C10.2773 22.4971 10.2455 21.5887 10.1916 20.8153C10.1612 20.3795 9.91619 20.0864 9.58176 20.0864C9.43335 20.0864 9.20574 20.1473 8.96478 20.4367C8.89931 20.5154 8.83236 20.5941 8.76516 20.6735C8.37705 21.1301 7.97559 21.6022 7.76294 22.1598C7.37932 23.1652 7.06217 24.4889 8.02189 25.8128C8.06766 25.8764 8.13958 25.9113 8.21343 25.9113Z" fill="white"/>
<path d="M5.68416 21.3975C5.69605 21.4603 5.73211 21.5156 5.78479 21.5511C5.82419 21.578 5.87051 21.592 5.91744 21.592C5.93288 21.592 5.94832 21.5904 5.96376 21.5873C6.05343 21.5695 6.15034 21.5584 6.25265 21.5466C6.50098 21.5183 6.75762 21.4892 6.9791 21.3538C8.30708 20.5416 9.13887 19.3134 9.45174 17.7027C9.48611 17.5254 9.46097 17.3504 9.4294 17.1285C9.41232 17.0096 9.39309 16.8748 9.37789 16.7105C9.37028 16.6292 9.32258 16.5576 9.25089 16.5203C9.21676 16.5023 9.17922 16.4934 9.14167 16.4934C9.10086 16.4934 9.05997 16.504 9.02368 16.525L8.07691 17.0727L7.40958 17.4587C7.38779 17.4641 7.36659 17.4729 7.34643 17.4845C6.37096 18.0617 5.77114 18.9832 5.51287 20.3015C5.4599 20.5716 5.53545 20.8385 5.60854 21.0968C5.63785 21.2025 5.66609 21.302 5.68416 21.3975Z" fill="white"/>
<path d="M11.2962 29.2597C11.6255 29.2597 11.8507 28.9635 12.0103 28.7056C12.6223 27.7157 12.7923 26.5691 12.5449 25.0971C12.4786 24.7023 12.3252 24.3347 12.1632 23.9453C12.0893 23.7685 12.0131 23.5857 11.9436 23.3955C11.9179 23.3257 11.8616 23.2719 11.7914 23.2499C11.7684 23.2427 11.7446 23.239 11.7209 23.239C11.6724 23.239 11.6246 23.2539 11.5841 23.283C10.7817 23.8538 10.2037 24.8994 10.0378 26.0796C9.8875 27.1487 10.103 28.1719 10.6144 28.8165C10.7784 29.0226 11.0039 29.2597 11.2962 29.2597Z" fill="white"/>
<path d="M14.1316 25.9868C14.0877 25.9499 14.0336 25.931 13.9795 25.931C13.9329 25.931 13.8862 25.9447 13.8458 25.9728C13.1908 26.4236 12.7987 27.2792 12.7413 28.382C12.6734 29.686 13.1035 31.0055 13.7872 31.5912C13.9894 31.7646 14.1651 31.8452 14.3398 31.8452C14.681 31.8452 14.8759 31.5299 14.94 31.4262C15.4928 30.5313 15.4521 29.5416 15.3732 28.8746C15.2561 27.8852 15.0541 26.7648 14.1316 25.9868Z" fill="white"/>
<path d="M7.57747 4.36368C7.75342 4.39601 7.93495 4.41261 8.11678 4.41261C10.2901 4.41261 12.4052 2.10125 12.5481 0.279106C12.5583 0.149535 12.4643 0.0354657 12.3364 0.0217647C12.1999 0.0073593 12.0613 0 11.9243 0C9.83312 0 7.92572 1.71339 7.38849 4.0744C7.37397 4.13812 7.38586 4.20522 7.42146 4.25987C7.45762 4.31435 7.51385 4.35194 7.57747 4.36368Z" fill="white"/>
<path d="M5.7767 17.1099C5.81519 17.1123 5.85389 17.1132 5.89284 17.1132C7.0102 17.1132 8.21855 16.1834 8.92071 15.2619C9.58066 14.3958 9.85528 13.5054 9.67437 12.8192C9.64832 12.72 9.56259 12.6489 9.46119 12.6417C9.37602 12.6356 9.291 12.6328 9.20836 12.6328C8.41149 12.6328 7.7323 12.9122 7.18871 13.4629C5.91581 14.2097 5.1595 15.8322 5.5678 16.9532C5.60053 17.0428 5.68244 17.1041 5.7767 17.1099Z" fill="white"/>
<path d="M5.92486 12.9299H5.93836C7.57703 12.9299 9.71354 11.0936 10.0205 9.42147C10.0393 9.31891 9.99034 9.21611 9.89941 9.16679C9.64853 9.03073 9.35271 8.96167 9.0206 8.96167C7.51582 8.96167 5.34604 10.4793 5.10392 12.0914C5.06452 12.353 5.10555 12.5511 5.22928 12.6973C5.4002 12.8995 5.67676 12.9282 5.92486 12.9299Z" fill="white"/>
<path d="M9.50697 28.5202C9.56748 28.4821 9.60782 28.4183 9.61689 28.3469C9.62589 28.2756 9.6024 28.2037 9.55329 28.1517C8.41048 26.9411 6.94061 26.2469 5.52077 26.2469C4.65361 26.2469 3.84859 26.5095 3.19299 27.006C3.14 27.0462 3.10632 27.1067 3.09941 27.1731C3.09259 27.2395 3.11346 27.3055 3.15714 27.3559C4.15681 28.506 5.63762 29.1926 7.11819 29.1926C7.98202 29.1922 8.80808 28.96 9.50697 28.5202Z" fill="white"/>
<path d="M44.7625 11.3217C44.7534 11.3217 44.7441 11.3221 44.735 11.3233C43.8297 11.4306 43.1013 11.6216 42.4909 12.2056C42.4859 12.2104 42.4807 12.2154 42.4763 12.2208L42.4433 12.2583L41.619 13.1977C41.612 13.2059 41.6053 13.2145 41.5993 13.2237C41.5179 13.347 41.432 13.468 41.3463 13.5892C41.1448 13.8738 40.9365 14.1678 40.7807 14.4927C40.6213 14.8254 40.5152 15.1829 40.4123 15.5283C40.368 15.6781 40.3233 15.8285 40.274 15.9782C40.251 16.0479 40.261 16.1243 40.3011 16.1857C40.3412 16.247 40.4069 16.2863 40.4794 16.2926C40.5541 16.2988 40.6306 16.3021 40.7068 16.3021C42.7768 16.3021 44.9434 13.9125 45 11.5673C45.0016 11.4977 44.9734 11.4312 44.9226 11.3845C44.8784 11.3437 44.8214 11.3217 44.7625 11.3217Z" fill="white"/>
<path d="M40.2498 7.16801C40.2503 7.16801 40.2512 7.16801 40.2515 7.16801C40.3202 7.16801 40.3853 7.1381 40.4305 7.08589C41.0514 6.36647 41.3564 5.27282 41.268 4.08525C41.1646 2.69598 40.5509 1.39346 39.6265 0.600452C39.5832 0.563342 39.5288 0.543457 39.4728 0.543457C39.462 0.543457 39.4513 0.544161 39.4407 0.54557C39.3739 0.554887 39.3139 0.592309 39.2761 0.648835C37.9201 2.67319 38.187 4.83815 40.0702 7.08338C40.115 7.13662 40.1808 7.16755 40.2498 7.16801Z" fill="white"/>
<path d="M40.5552 12.0503C40.5721 12.1127 40.6131 12.1651 40.6689 12.1965C40.7047 12.2164 40.7442 12.2267 40.7844 12.2267C40.807 12.2267 40.8299 12.2234 40.852 12.2166C42.8188 11.6262 43.9533 8.89194 43.3296 6.24635C43.3136 6.1791 43.2698 6.1218 43.209 6.08969C43.1747 6.07153 43.1369 6.06213 43.0986 6.06213C43.0694 6.06213 43.0405 6.06768 43.0127 6.07841C40.912 6.90226 39.8557 9.46973 40.5552 12.0503Z" fill="white"/>
<path d="M44.6261 15.9343C44.6158 15.9343 44.6055 15.935 44.5955 15.9362C42.4931 16.211 41.7169 17.1801 41.3167 17.8887C40.6685 18.6536 40.4141 19.565 40.1723 20.5879C40.1562 20.6556 40.1703 20.727 40.2108 20.7837C40.2511 20.8402 40.314 20.8761 40.3829 20.8822C40.4579 20.8886 40.5347 20.8921 40.6111 20.8921C42.6641 20.8921 44.8102 18.5136 44.8636 16.1795C44.8652 16.1095 44.8363 16.0425 44.785 15.9957C44.7408 15.9559 44.6842 15.9343 44.6261 15.9343Z" fill="white"/>
<path d="M32.6685 32.5575C31.521 32.5575 30.3503 32.9321 29.3725 33.6121C29.315 33.6521 29.2779 33.7152 29.271 33.7856C29.2639 33.8556 29.2878 33.9251 29.3363 33.9757C30.1418 34.8188 31.347 35.3026 32.6429 35.3026C33.771 35.3026 34.8826 34.9407 35.7735 34.2837C35.8254 34.2458 35.8594 34.1882 35.8685 34.1243C35.8776 34.0603 35.8607 33.9955 35.8218 33.9443C35.1502 33.0629 34.001 32.5575 32.6685 32.5575Z" fill="white"/>
<path d="M36.7292 29.7146C35.4762 29.7146 34.1884 30.2074 33.1031 31.1021C33.0476 31.1479 33.0155 31.2171 33.016 31.2893C33.0165 31.3616 33.0495 31.4303 33.1055 31.4753C33.9388 32.1444 34.9577 32.4978 36.0514 32.4978C37.3123 32.4978 38.5548 32.021 39.5504 31.1547C39.6011 31.1103 39.631 31.0463 39.6327 30.9785C39.6344 30.9108 39.6071 30.8454 39.5582 30.799C38.8234 30.0996 37.8188 29.7146 36.7292 29.7146Z" fill="white"/>
<path d="M43.6776 21.8037C43.2769 21.752 42.8858 21.7052 42.5028 21.7052C41.7577 21.7052 41.1703 21.8858 40.6554 22.2734L40.1779 22.5904L40.1458 22.6117C39.1864 23.1267 38.5126 23.9221 38.0865 25.0431C38.0626 25.1063 38.066 25.1771 38.0968 25.2376C38.1273 25.2982 38.1816 25.3426 38.2465 25.3603C38.5615 25.4457 38.8937 25.4891 39.2336 25.4891C41.2174 25.4891 43.2115 24.0405 43.8719 22.1193C43.8954 22.051 43.8872 21.9761 43.8494 21.9148C43.8114 21.8536 43.7487 21.813 43.6776 21.8037Z" fill="white"/>
<path d="M34.1448 5.95265C34.2194 6.15058 34.2965 6.35491 34.4245 6.53075C35.3229 7.7636 36.4955 8.51825 37.9099 8.77339C37.9659 8.78341 38.0248 8.78873 38.0859 8.78873C38.2964 8.78873 38.5023 8.72954 38.7019 8.67232C38.8077 8.64187 38.9078 8.61313 39.004 8.59441C39.0667 8.58221 39.1218 8.5451 39.157 8.49169C39.1921 8.43799 39.2044 8.37239 39.1914 8.30959C39.1721 8.21807 39.1589 8.12131 39.1448 8.01898C39.1117 7.77652 39.0777 7.52576 38.9561 7.30098C38.2776 6.04535 36.7718 5.16858 35.2941 5.16858C34.8976 5.16858 34.5206 5.23231 34.1735 5.35828C34.1117 5.38083 34.0615 5.42827 34.0358 5.48933C34.0098 5.5504 34.0102 5.6197 34.037 5.68052C34.0763 5.77055 34.111 5.86333 34.1448 5.95265Z" fill="white"/>
<path d="M36.6918 25.8911C36.7224 25.9047 36.7547 25.9111 36.7863 25.9111C36.8603 25.9111 36.9323 25.8761 36.9781 25.8128C37.9379 24.4887 37.6207 23.1651 37.2371 22.16C37.0245 21.6022 36.6229 21.13 36.2348 20.6735C36.1676 20.5941 36.1006 20.5155 36.0352 20.4367C35.7942 20.1474 35.5668 20.0865 35.4182 20.0865C35.084 20.0865 34.8387 20.3795 34.8083 20.8152C34.7546 21.5887 34.7228 22.4969 34.8963 23.3709C35.0576 24.1855 35.4198 25.3332 36.6918 25.8911Z" fill="white"/>
<path d="M38.7477 21.5467C38.85 21.5583 38.9465 21.5692 39.0365 21.5874C39.052 21.5906 39.0675 21.5921 39.0829 21.5921C39.1298 21.5921 39.176 21.5779 39.2157 21.551C39.2681 21.5153 39.3043 21.46 39.3163 21.3975C39.3342 21.3023 39.3625 21.2028 39.3924 21.0971C39.4656 20.8388 39.5412 20.572 39.4881 20.302C39.2298 18.9834 38.6302 18.0618 37.6544 17.485C37.6343 17.473 37.613 17.4644 37.5914 17.459L36.9239 17.073L35.9772 16.5254C35.9408 16.5043 35.9001 16.4938 35.8592 16.4938C35.8218 16.4938 35.7843 16.5026 35.7502 16.5206C35.6784 16.558 35.6305 16.6299 35.6231 16.7109C35.608 16.8754 35.5885 17.0101 35.5715 17.1289C35.5398 17.3508 35.5149 17.5259 35.5494 17.7032C35.8618 19.3138 36.694 20.5421 38.0216 21.3541C38.2427 21.4892 38.4993 21.5184 38.7477 21.5467Z" fill="white"/>
<path d="M33.7035 29.2597C33.996 29.2597 34.2213 29.0228 34.385 28.8165C34.8965 28.1719 35.1119 27.1489 34.9618 26.0796C34.7957 24.8994 34.2177 23.8538 33.4153 23.2829C33.3747 23.2543 33.327 23.239 33.2786 23.239C33.255 23.239 33.2313 23.2427 33.2081 23.2498C33.1379 23.2718 33.0816 23.3257 33.056 23.3954C32.9862 23.5857 32.91 23.7685 32.8363 23.9453C32.6741 24.3345 32.5208 24.7021 32.4546 25.0971C32.2075 26.5687 32.3775 27.7153 32.9893 28.7054C33.1491 28.9637 33.3742 29.2597 33.7035 29.2597Z" fill="white"/>
<path d="M31.1542 25.9728C31.1135 25.9449 31.067 25.931 31.0204 25.931C30.9661 25.931 30.912 25.9497 30.8684 25.9868C29.9457 26.7648 29.7438 27.8852 29.627 28.8746C29.5481 29.5417 29.5074 30.5315 30.0605 31.4262C30.1247 31.53 30.3195 31.8453 30.6606 31.8453C30.8353 31.8453 31.011 31.7647 31.2131 31.5914C31.8969 31.0059 32.3271 29.6861 32.2591 28.3821C32.2012 27.2792 31.8091 26.4236 31.1542 25.9728Z" fill="white"/>
<path d="M37.4223 4.36384C37.486 4.35209 37.5424 4.31451 37.5779 4.25986C37.6137 4.20522 37.6255 4.13813 37.6111 4.07439C37.074 1.7137 35.1663 0 33.0753 0C32.9381 0 32.7995 0.0074376 32.6633 0.0217648C32.5353 0.0354656 32.4414 0.149456 32.4517 0.279105C32.5948 2.10101 34.7096 4.41262 36.8828 4.41262C37.0647 4.41277 37.2463 4.39617 37.4223 4.36384Z" fill="white"/>
<path d="M37.8109 13.4629C37.2668 12.9119 36.5877 12.6328 35.7912 12.6328C35.709 12.6328 35.6238 12.636 35.5384 12.6417C35.4371 12.6486 35.3514 12.7199 35.3253 12.8192C35.1444 13.5056 35.4194 14.3958 36.0789 15.2619C36.7812 16.1834 37.9895 17.1132 39.107 17.1132C39.1458 17.1132 39.1844 17.112 39.2229 17.1099C39.3172 17.1041 39.3991 17.0428 39.4316 16.9534C39.8402 15.8325 39.0838 14.2097 37.8109 13.4629Z" fill="white"/>
<path d="M39.8963 12.0912C39.6541 10.4791 37.4847 8.96143 35.9799 8.96143H35.9797C35.6476 8.96143 35.3518 9.0304 35.1009 9.16655C35.01 9.21586 34.9611 9.31867 34.9798 9.42114C35.2867 11.0934 37.423 12.9296 39.0619 12.9296H39.0755C39.3231 12.9282 39.5998 12.8992 39.7713 12.6967C39.8946 12.5511 39.9355 12.353 39.8963 12.0912Z" fill="white"/>
<path d="M39.4794 26.2466C38.0593 26.2466 36.5894 26.941 35.4466 28.1515C35.3975 28.2037 35.3739 28.2753 35.383 28.3467C35.3921 28.4181 35.4325 28.4819 35.493 28.52C36.1917 28.9598 37.0176 29.1922 37.8817 29.1922C39.3624 29.1922 40.8433 28.5056 41.8429 27.3554C41.8866 27.3053 41.9075 27.2389 41.9006 27.1725C41.8936 27.1061 41.8598 27.046 41.807 27.0056C41.1513 26.5094 40.3463 26.2466 39.4794 26.2466Z" fill="white"/>
<path d="M30.3554 36.9967C28.2308 36.3588 26.1074 35.7163 23.9836 35.0755C23.8581 35.0377 23.7547 34.9593 23.7526 34.9009C23.7507 34.8425 23.8462 34.7506 23.9652 34.6957C24.1708 34.6005 24.3762 34.5047 24.5842 34.4156C25.4269 34.054 26.2554 33.6477 27.1209 33.3539C27.7227 33.1496 28.0348 32.8533 27.9278 32.2314C27.9055 32.1011 27.7758 32.043 27.6564 32.0976C26.6518 32.5578 25.6522 33.0288 24.638 33.4659C24.0152 33.7346 23.4058 34.2026 22.6642 33.746C22.6247 33.7217 22.5635 33.7146 22.5 33.716C22.4363 33.7146 22.3751 33.7217 22.3356 33.746C21.594 34.2026 20.9848 33.7346 20.3618 33.4659C19.3476 33.0288 18.348 32.5578 17.3434 32.0976C17.224 32.043 17.0943 32.1011 17.072 32.2314C16.9649 32.8533 17.2771 33.1497 17.8789 33.3539C18.7444 33.6479 19.5728 34.0538 20.4156 34.4156C20.6236 34.505 20.8288 34.6005 21.0346 34.6957C21.1536 34.7506 21.2491 34.8425 21.2472 34.9009C21.2453 34.9593 21.1417 35.0375 21.0162 35.0755C18.8923 35.7165 16.769 36.359 14.6445 36.9967C13.9066 37.218 13.2952 37.909 13.1187 38.7306C13.091 38.86 13.1703 38.9363 13.2809 38.8978C13.3492 38.8741 13.4152 38.8507 13.4803 38.825C15.8876 37.8759 18.2961 36.9298 20.7005 35.9725C21.2022 35.7726 21.6673 35.5109 22.2212 35.8823C22.2587 35.9075 22.3052 35.9181 22.3576 35.92C22.4368 35.9229 22.5632 35.9229 22.642 35.92C22.6944 35.9181 22.741 35.9075 22.7786 35.8823C23.3325 35.5109 23.7974 35.7726 24.2993 35.9725C26.7034 36.9298 29.1121 37.8759 31.5196 38.825C31.5845 38.8507 31.6504 38.8741 31.719 38.8978C31.8296 38.9363 31.9088 38.86 31.8811 38.7306C31.7047 37.909 31.0933 37.2182 30.3554 36.9967Z" fill="white"/>
<path d="M22.5618 22.6373C22.3557 22.6373 22.2114 22.568 22.129 22.4293L17.4916 11.8421H17.4297L17.471 20.0997C17.4847 20.4741 17.5122 20.7653 17.5534 20.9733C17.5946 21.1674 17.7046 21.3408 17.8832 21.4933C18.0755 21.632 18.371 21.7013 18.7694 21.7013H18.8931C19.0305 21.7013 19.1267 21.729 19.1816 21.7845C19.2504 21.8261 19.2916 21.944 19.3053 22.1381C19.3053 22.2629 19.271 22.3738 19.2023 22.4709C19.1473 22.5541 19.058 22.5957 18.9343 22.5957L18.4191 22.5749C17.787 22.5472 17.3336 22.5333 17.0587 22.5333C16.5916 22.5333 15.9114 22.5541 15.0183 22.5957C14.8946 22.5957 14.7984 22.5541 14.7297 22.4709C14.6748 22.3738 14.6473 22.2629 14.6473 22.1381C14.661 21.9301 14.7023 21.8053 14.771 21.7637C14.8397 21.7221 14.9702 21.7013 15.1626 21.7013C15.561 21.7013 15.8496 21.632 16.0282 21.4933C16.2206 21.3408 16.3374 21.1674 16.3786 20.9733C16.4198 20.7653 16.4473 20.4741 16.461 20.0997L16.5023 11.8421C16.5023 11.4122 16.4542 11.0933 16.358 10.8853C16.2618 10.6634 16.1175 10.5109 15.9252 10.4277C15.7465 10.3306 15.4786 10.2474 15.1213 10.1781C15.0664 10.1642 14.9839 10.1504 14.874 10.1365C14.7641 10.1088 14.6885 10.0672 14.6473 10.0117C14.6198 9.94236 14.6061 9.83836 14.6061 9.69969C14.6061 9.53329 14.6473 9.42236 14.7297 9.36689C14.8259 9.31142 14.9702 9.28369 15.1626 9.28369C15.9733 9.28369 16.6397 9.33916 17.1618 9.45009C17.6839 9.54716 18.1374 9.75516 18.5221 10.0741C18.9206 10.393 19.2504 10.8645 19.5114 11.4885L23.0565 19.5173H23.1183L27.1786 9.40849H28.3534C29.1091 9.40849 29.9267 9.38769 30.8061 9.34609C30.9297 9.34609 31.019 9.39462 31.074 9.49169C31.1427 9.57489 31.1771 9.67889 31.1771 9.80369C31.1633 10.0117 31.1152 10.1365 31.0328 10.1781C30.9641 10.2197 30.8404 10.2405 30.6618 10.2405C30.2633 10.2405 29.9679 10.3168 29.7755 10.4693C29.5832 10.608 29.4595 10.7882 29.4045 11.0101C29.3633 11.2181 29.3358 11.4954 29.3221 11.8421V20.0997C29.3358 20.4464 29.3633 20.7306 29.4045 20.9525C29.4595 21.1605 29.5832 21.3408 29.7755 21.4933C29.9679 21.632 30.2633 21.7013 30.6618 21.7013H30.7855C30.9091 21.7013 30.9984 21.729 31.0534 21.7845C31.1221 21.8261 31.1633 21.944 31.1771 22.1381C31.1771 22.2629 31.1427 22.3738 31.074 22.4709C31.019 22.5541 30.9297 22.5957 30.8061 22.5957C29.9267 22.5541 29.1023 22.5333 28.3328 22.5333C27.5358 22.5333 26.6908 22.5541 25.7977 22.5957C25.674 22.5957 25.5778 22.5541 25.5091 22.4709C25.4542 22.3738 25.4267 22.2629 25.4267 22.1381C25.4404 21.9301 25.4816 21.8053 25.5503 21.7637C25.6191 21.7221 25.7496 21.7013 25.942 21.7013C26.3404 21.7013 26.6358 21.632 26.8282 21.4933C27.0206 21.3408 27.1374 21.1605 27.1786 20.9525C27.2336 20.7306 27.2679 20.4464 27.2816 20.0997V11.8421H27.2198L22.974 22.4293C22.9191 22.568 22.7816 22.6373 22.5618 22.6373Z" fill="white"/>
</g>
<defs>
<clipPath id="clip0">
<rect width="45" height="39" fill="white"/>
</clipPath>
</defs>
</svg>
