<svg width="262" height="225" viewBox="0 0 262 225" fill="none" xmlns="http://www.w3.org/2000/svg">
<path d="M24.9961 94.0503C25.4383 94.0503 25.885 94.0322 26.3205 93.9952C26.7437 93.959 27.1262 93.7323 27.3584 93.3786C27.5919 93.0245 27.6502 92.5837 27.516 92.1817C27.2288 91.3176 26.9686 90.45 26.7103 89.5859C26.1131 87.5913 25.4957 85.5308 24.5652 83.6111C23.6587 81.7371 22.4464 80.0411 21.273 78.3988C20.7739 77.6996 20.2739 76.9999 19.7996 76.2899C19.7648 76.2375 19.7264 76.1874 19.6849 76.1404L14.6939 70.5039C14.6677 70.4737 14.6383 70.4443 14.6094 70.4168C11.0543 67.0486 6.81437 65.9456 1.54286 65.3264C1.48866 65.3196 1.43491 65.3169 1.38252 65.3169C1.0397 65.3169 0.706359 65.4443 0.451162 65.6778C0.155314 65.9474 -0.0090963 66.3327 0.000388896 66.7324C0.329209 80.2638 12.9427 94.0503 24.9961 94.0503Z" fill="#2D3C52"/>
<path d="M32.3656 3.14766C32.3033 3.13907 32.2396 3.13501 32.1787 3.13501C31.8525 3.13501 31.5346 3.24974 31.2834 3.46428C25.9013 8.0375 22.3285 15.5538 21.726 23.5688C21.2106 30.4199 22.988 36.7293 26.6023 40.8802C26.8647 41.1815 27.245 41.354 27.6443 41.354C27.647 41.354 27.6511 41.354 27.6538 41.354C28.0576 41.3513 28.4388 41.1729 28.6985 40.8649C39.6629 27.9117 41.2194 15.4224 33.3218 3.74251C33.1037 3.41731 32.7554 3.20141 32.3656 3.14766Z" fill="#2D3C52"/>
<path d="M24.1502 70.4809C24.2789 70.5198 24.4117 70.5392 24.5441 70.5392C24.7762 70.5392 25.0084 70.4796 25.2157 70.3649C25.5405 70.1837 25.7799 69.8798 25.8779 69.5216C29.9511 54.6334 23.8006 39.8225 11.5701 35.0695C11.4084 35.0072 11.2386 34.9756 11.0697 34.9756C10.8488 34.9756 10.6275 35.028 10.4269 35.1346C10.0733 35.3198 9.81763 35.6504 9.72504 36.0384C6.09447 51.3001 12.6993 67.0739 24.1502 70.4809Z" fill="#2D3C52"/>
<path d="M25.5531 120.531C25.998 120.531 26.4461 120.511 26.8828 120.474C27.2835 120.439 27.6484 120.232 27.8847 119.906C28.12 119.579 28.2013 119.167 28.1087 118.776C26.7004 112.875 25.2198 107.617 21.4456 103.204C16.5927 94.697 8.22816 92.7011 2.35547 91.9396C2.29585 91.931 2.23668 91.9287 2.17841 91.9287C1.83965 91.9287 1.50948 92.0529 1.25383 92.2824C0.953916 92.552 0.786796 92.9391 0.796281 93.3425C1.10613 106.81 13.6018 120.531 25.5531 120.531Z" fill="#2D3C52"/>
<path d="M91.5761 194.917C91.5359 194.513 91.3191 194.147 90.9858 193.916C85.2915 189.992 78.4762 187.832 71.7963 187.832C64.0383 187.832 57.3477 190.748 53.4375 195.831C53.2112 196.127 53.1127 196.5 53.1651 196.869C53.2175 197.238 53.4167 197.57 53.718 197.79C58.905 201.58 65.3776 203.667 71.9454 203.667C79.4906 203.667 86.5074 200.878 91.1972 196.013C91.4777 195.721 91.6172 195.321 91.5761 194.917Z" fill="#2D3C52"/>
<path d="M69.7729 180.514C69.7757 180.096 69.5891 179.698 69.2657 179.434C62.945 174.272 55.4471 171.429 48.1548 171.429C41.7184 171.429 36.0228 173.592 31.6827 177.683C31.3981 177.951 31.2405 178.329 31.2486 178.72C31.2567 179.111 31.4311 179.48 31.7283 179.735C37.5251 184.733 44.7591 187.485 52.0998 187.485C58.4675 187.485 64.3994 185.445 69.2522 181.585C69.5792 181.326 69.7702 180.932 69.7729 180.514Z" fill="#2D3C52"/>
<path d="M39.3206 146.31C39.6977 146.208 40.0162 145.951 40.1928 145.602C40.3698 145.254 40.3915 144.846 40.2519 144.48C37.7727 138.014 33.8499 133.425 28.2622 130.453L28.0757 130.33L25.2947 128.501C22.2969 126.266 18.8773 125.223 14.5389 125.223C12.3086 125.223 10.0308 125.491 7.6974 125.791C7.28411 125.844 6.9178 126.08 6.69829 126.434C6.47878 126.788 6.4318 127.222 6.56685 127.614C10.412 138.698 22.0219 147.055 33.5721 147.055C35.5527 147.054 37.4863 146.803 39.3206 146.31Z" fill="#2D3C52"/>
<path d="M35.1896 42.1197C34.4818 43.4178 34.283 44.8632 34.0906 46.262C34.0089 46.8523 33.933 47.4106 33.8196 47.9386C33.7424 48.3022 33.8156 48.6807 34.0202 48.9892C34.2248 49.2986 34.5468 49.5114 34.9104 49.5818C35.4701 49.6898 36.0518 49.8555 36.6702 50.0312C37.831 50.3614 39.0306 50.7029 40.2556 50.7029C40.6106 50.7029 40.9548 50.674 41.2813 50.6144C49.5149 49.141 56.3425 44.7886 61.5724 37.6761C62.3172 36.663 62.7666 35.4828 63.2003 34.3409C63.3967 33.8256 63.5995 33.2903 63.8308 32.7709C63.9857 32.4199 63.9884 32.0202 63.8376 31.6679C63.6867 31.3156 63.3954 31.0419 63.0345 30.9118C61.0123 30.1864 58.8176 29.8174 56.5109 29.8174C47.9079 29.8174 39.1395 34.8757 35.1896 42.1197Z" fill="#2D3C52"/>
<path d="M47.8207 149.488C48.0059 149.488 48.1924 149.45 48.3708 149.372C55.7765 146.152 57.8854 139.53 58.8267 134.832C59.8371 129.791 59.6519 124.55 59.338 120.088C59.1609 117.574 57.7345 115.883 55.7874 115.883C54.9233 115.883 53.5981 116.234 52.1952 117.904C51.814 118.358 51.4242 118.812 51.033 119.27C48.7733 121.904 46.4359 124.628 45.1978 127.845C42.9643 133.645 41.1178 141.282 46.7055 148.92C46.972 149.287 47.3907 149.488 47.8207 149.488Z" fill="#2D3C52"/>
<path d="M33.0943 123.447C33.1635 123.809 33.3735 124.128 33.6802 124.333C33.9096 124.488 34.1793 124.569 34.4525 124.569C34.5424 124.569 34.6323 124.56 34.7222 124.542C35.2443 124.439 35.8085 124.375 36.4042 124.307C37.85 124.144 39.3442 123.976 40.6337 123.195C48.3655 118.509 53.2084 111.423 55.03 102.131C55.2301 101.108 55.0837 100.098 54.8999 98.818C54.8005 98.1324 54.6885 97.3546 54.6 96.4066C54.5557 95.9377 54.278 95.5244 53.8606 95.309C53.6619 95.2055 53.4433 95.1541 53.2247 95.1541C52.9871 95.1541 52.749 95.215 52.5377 95.3365L47.0254 98.496L43.1401 100.723C43.0132 100.754 42.8898 100.805 42.7724 100.872C37.093 104.202 33.6007 109.518 32.097 117.124C31.7886 118.682 32.2285 120.222 32.654 121.712C32.8247 122.322 32.9891 122.896 33.0943 123.447Z" fill="#2D3C52"/>
<path d="M65.7688 168.806C67.6861 168.806 68.9974 167.097 69.9265 165.609C73.4897 159.898 74.4794 153.283 73.039 144.791C72.6532 142.513 71.7603 140.392 70.8167 138.146C70.3867 137.126 69.9432 136.071 69.538 134.974C69.3885 134.571 69.0611 134.261 68.6523 134.134C68.5181 134.092 68.3799 134.071 68.2417 134.071C67.9594 134.071 67.6807 134.157 67.4454 134.325C62.7737 137.618 59.4083 143.65 58.4421 150.459C57.5673 156.627 58.822 162.53 61.7995 166.249C62.7543 167.438 64.0673 168.806 65.7688 168.806Z" fill="#2D3C52"/>
<path d="M82.2774 149.924C82.0218 149.711 81.7065 149.602 81.3917 149.602C81.1207 149.602 80.8483 149.681 80.6134 149.843C76.7999 152.444 74.5167 157.38 74.1825 163.742C73.7873 171.265 76.2913 178.878 80.272 182.257C81.4495 183.257 82.4725 183.722 83.4897 183.722C85.4757 183.722 86.6108 181.903 86.9839 181.305C90.2025 176.142 89.9654 170.432 89.506 166.584C88.8245 160.876 87.6483 154.412 82.2774 149.924Z" fill="#2D3C52"/>
<path d="M44.1179 25.1758C45.1423 25.3623 46.1992 25.4581 47.2579 25.4581C59.9112 25.4581 72.2261 12.1233 73.0581 1.61096C73.1173 0.863433 72.5703 0.205342 71.8255 0.126298C71.0305 0.0431899 70.2238 0.000732422 69.4262 0.000732422C57.2508 0.000732422 46.1454 9.88566 43.0176 23.5069C42.9331 23.8745 43.0022 24.2616 43.2096 24.5769C43.42 24.8912 43.7475 25.1081 44.1179 25.1758Z" fill="#2D3C52"/>
<path d="M33.6332 98.7107C33.8572 98.7247 34.0826 98.7301 34.3093 98.7301C40.8148 98.7301 47.8501 93.366 51.9382 88.0493C55.7807 83.0529 57.3796 77.9155 56.3263 73.957C56.1745 73.3848 55.6754 72.9742 55.0851 72.9326C54.5891 72.8978 54.0941 72.8816 53.6131 72.8816C48.9734 72.8816 45.019 74.4932 41.8541 77.6707C34.443 81.9788 30.0396 91.3398 32.4168 97.8069C32.6074 98.3241 33.0844 98.6777 33.6332 98.7107Z" fill="#2D3C52"/>
<path d="M34.4958 74.5956H34.5744C44.1152 74.5956 56.5543 64.0015 58.3416 54.3546C58.4509 53.7629 58.1659 53.1698 57.6365 52.8853C56.1758 52.1003 54.4536 51.7019 52.52 51.7019C43.7588 51.7019 31.1259 60.4576 29.7162 69.7581C29.4867 71.2672 29.7257 72.4103 30.4461 73.2536C31.4411 74.4199 33.0514 74.5856 34.4958 74.5956Z" fill="#2D3C52"/>
<path d="M55.3519 164.54C55.7042 164.32 55.9391 163.952 55.9919 163.54C56.0443 163.129 55.9075 162.714 55.6216 162.414C48.9679 155.43 40.41 151.425 32.1434 151.425C27.0946 151.425 22.4076 152.94 18.5905 155.804C18.282 156.036 18.0859 156.385 18.0457 156.768C18.006 157.151 18.1275 157.532 18.3818 157.823C24.2021 164.458 32.8237 168.419 41.4439 168.419C46.4733 168.417 51.2828 167.077 55.3519 164.54Z" fill="#2D3C52"/>
<path d="M260.618 65.3171C260.564 65.3171 260.51 65.3198 260.457 65.3266C255.186 65.9459 250.945 67.0475 247.391 70.417C247.362 70.4446 247.332 70.4735 247.306 70.5042L247.114 70.721L242.315 76.1407C242.274 76.1876 242.235 76.2373 242.201 76.2902C241.726 77.002 241.226 77.6998 240.727 78.399C239.555 80.0413 238.341 81.7369 237.434 83.6114C236.506 85.531 235.888 87.5934 235.289 89.5861C235.031 90.4502 234.771 91.3179 234.484 92.1819C234.35 92.5839 234.408 93.0248 234.642 93.3789C234.875 93.7325 235.258 93.9593 235.68 93.9954C236.115 94.0315 236.56 94.0505 237.004 94.0505C249.056 94.0505 261.67 80.264 262 66.7341C262.009 66.333 261.845 65.949 261.549 65.6794C261.292 65.4441 260.96 65.3171 260.618 65.3171Z" fill="#2D3C52"/>
<path d="M234.344 41.3541C234.347 41.3541 234.352 41.3541 234.354 41.3541C234.754 41.3541 235.134 41.1815 235.396 40.8803C239.011 36.7298 240.787 30.4203 240.272 23.5689C239.67 15.5539 236.097 8.03935 230.715 3.46432C230.463 3.25022 230.146 3.1355 229.82 3.1355C229.757 3.1355 229.695 3.13956 229.633 3.14769C229.244 3.20144 228.895 3.41734 228.675 3.74345C220.78 15.4224 222.334 27.9126 233.298 40.8658C233.559 41.173 233.942 41.3514 234.344 41.3541Z" fill="#2D3C52"/>
<path d="M236.122 69.5212C236.22 69.8808 236.459 70.1834 236.784 70.3645C236.992 70.4792 237.222 70.5389 237.456 70.5389C237.588 70.5389 237.721 70.5194 237.85 70.4806C249.301 67.074 255.906 51.2997 252.275 36.0367C252.182 35.6487 251.927 35.3181 251.573 35.1329C251.373 35.0281 251.153 34.9739 250.93 34.9739C250.76 34.9739 250.592 35.0059 250.43 35.0678C238.199 39.8208 232.049 54.6331 236.122 69.5212Z" fill="#2D3C52"/>
<path d="M259.823 91.9287C259.763 91.9287 259.703 91.9328 259.646 91.9396C247.404 93.5249 242.885 99.1158 240.556 103.204C236.781 107.617 235.3 112.875 233.892 118.776C233.798 119.167 233.88 119.579 234.116 119.906C234.351 120.232 234.717 120.439 235.118 120.474C235.555 120.511 236.003 120.531 236.448 120.531C248.4 120.531 260.895 106.809 261.206 93.3429C261.215 92.9391 261.048 92.5525 260.748 92.2828C260.492 92.0534 260.161 91.9287 259.823 91.9287Z" fill="#2D3C52"/>
<path d="M190.203 187.832C183.522 187.832 176.706 189.993 171.013 193.916C170.678 194.147 170.462 194.511 170.422 194.917C170.381 195.321 170.52 195.722 170.802 196.014C175.492 200.878 182.509 203.669 190.054 203.669C196.622 203.669 203.094 201.581 208.281 197.791C208.583 197.572 208.781 197.24 208.834 196.871C208.887 196.502 208.789 196.128 208.562 195.833C204.652 190.748 197.961 187.832 190.203 187.832Z" fill="#2D3C52"/>
<path d="M213.846 171.43C206.551 171.43 199.053 174.273 192.734 179.435C192.411 179.699 192.224 180.098 192.227 180.515C192.23 180.932 192.422 181.328 192.748 181.588C197.6 185.448 203.532 187.487 209.9 187.487C217.241 187.487 224.475 184.736 230.272 179.738C230.567 179.482 230.741 179.113 230.751 178.722C230.761 178.331 230.602 177.954 230.317 177.686C226.039 173.651 220.19 171.43 213.846 171.43Z" fill="#2D3C52"/>
<path d="M254.301 125.79C251.968 125.492 249.691 125.222 247.461 125.222C243.123 125.222 239.703 126.264 236.705 128.5L233.925 130.329L233.738 130.452C228.151 133.423 224.229 138.012 221.748 144.479C221.609 144.844 221.629 145.252 221.808 145.601C221.986 145.951 222.302 146.207 222.68 146.309C224.514 146.802 226.448 147.052 228.427 147.052C239.977 147.052 251.587 138.695 255.432 127.611C255.569 127.217 255.521 126.785 255.301 126.431C255.08 126.078 254.715 125.844 254.301 125.79Z" fill="#2D3C52"/>
<path d="M198.799 34.3421C199.233 35.484 199.682 36.6628 200.427 37.6773C205.658 44.7899 212.485 49.1436 220.72 50.6156C221.046 50.6734 221.389 50.7041 221.745 50.7041C222.97 50.7041 224.17 50.3626 225.331 50.0325C225.947 49.8568 226.53 49.691 227.091 49.583C227.455 49.5126 227.776 49.2985 227.981 48.9904C228.185 48.6806 228.257 48.3021 228.181 47.9398C228.069 47.4118 227.992 46.8536 227.91 46.2632C227.717 44.8644 227.519 43.4177 226.811 42.1209C222.861 34.8769 214.094 29.8186 205.49 29.8186C203.182 29.8186 200.987 30.1863 198.966 30.913C198.606 31.0431 198.314 31.3168 198.164 31.6691C198.013 32.0214 198.015 32.4212 198.171 32.7721C198.4 33.2915 198.602 33.8268 198.799 34.3421Z" fill="#2D3C52"/>
<path d="M213.628 149.372C213.806 149.45 213.994 149.487 214.178 149.487C214.609 149.487 215.028 149.285 215.295 148.92C220.883 141.281 219.036 133.645 216.803 127.846C215.565 124.628 213.227 121.904 210.967 119.27C210.576 118.812 210.186 118.359 209.805 117.904C208.402 116.235 207.078 115.884 206.213 115.884C204.267 115.884 202.839 117.574 202.662 120.088C202.349 124.55 202.164 129.79 203.174 134.832C204.113 139.532 206.222 146.153 213.628 149.372Z" fill="#2D3C52"/>
<path d="M225.597 124.308C226.193 124.375 226.755 124.438 227.279 124.543C227.369 124.561 227.459 124.57 227.549 124.57C227.822 124.57 228.091 124.488 228.322 124.333C228.627 124.127 228.839 123.808 228.908 123.447C229.012 122.898 229.177 122.324 229.351 121.714C229.777 120.224 230.217 118.685 229.908 117.127C228.404 109.52 224.913 104.203 219.232 100.875C219.115 100.806 218.991 100.756 218.865 100.725L214.979 98.4984L209.468 95.339C209.255 95.2175 209.019 95.1565 208.781 95.1565C208.562 95.1565 208.344 95.2075 208.145 95.3114C207.727 95.5273 207.448 95.942 207.405 96.409C207.317 97.3584 207.204 98.1353 207.105 98.8209C206.92 100.101 206.775 101.111 206.976 102.134C208.795 111.426 213.64 118.512 221.37 123.197C222.657 123.976 224.152 124.145 225.597 124.308Z" fill="#2D3C52"/>
<path d="M196.229 168.806C197.933 168.806 199.244 167.439 200.197 166.249C203.175 162.53 204.429 156.628 203.555 150.459C202.588 143.65 199.223 137.618 194.551 134.324C194.315 134.159 194.037 134.071 193.755 134.071C193.618 134.071 193.48 134.092 193.345 134.133C192.936 134.26 192.608 134.571 192.459 134.973C192.053 136.071 191.609 137.126 191.18 138.146C190.236 140.391 189.343 142.512 188.958 144.791C187.519 153.281 188.509 159.896 192.071 165.608C193.001 167.098 194.312 168.806 196.229 168.806Z" fill="#2D3C52"/>
<path d="M181.387 149.843C181.15 149.682 180.879 149.602 180.608 149.602C180.292 149.602 179.977 149.71 179.723 149.924C174.351 154.412 173.175 160.876 172.495 166.584C172.036 170.433 171.799 176.143 175.019 181.305C175.392 181.904 176.527 183.723 178.513 183.723C179.53 183.723 180.553 183.258 181.73 182.258C185.711 178.88 188.215 171.266 187.82 163.743C187.483 157.38 185.2 152.444 181.387 149.843Z" fill="#2D3C52"/>
<path d="M217.881 25.176C218.252 25.1082 218.58 24.8914 218.787 24.5761C218.995 24.2609 219.064 23.8738 218.98 23.5061C215.853 9.88674 204.746 0 192.572 0C191.773 0 190.966 0.0429092 190.173 0.125566C189.428 0.204609 188.881 0.862249 188.94 1.61022C189.774 12.1212 202.087 25.4574 214.74 25.4574C215.799 25.4583 216.856 25.3625 217.881 25.176Z" fill="#2D3C52"/>
<path d="M220.143 77.6707C216.975 74.4918 213.021 72.8816 208.384 72.8816C207.905 72.8816 207.409 72.8997 206.912 72.9326C206.322 72.9728 205.823 73.3843 205.671 73.957C204.618 77.9169 206.219 83.0529 210.059 88.0493C214.148 93.366 221.183 98.7301 227.688 98.7301C227.915 98.7301 228.14 98.7233 228.364 98.7107C228.913 98.6777 229.39 98.3241 229.579 97.8082C231.958 91.3411 227.554 81.9788 220.143 77.6707Z" fill="#2D3C52"/>
<path d="M232.285 69.7569C230.875 60.4564 218.244 51.7007 209.483 51.7007H209.482C207.548 51.7007 205.826 52.0986 204.365 52.8841C203.836 53.1686 203.551 53.7617 203.66 54.3529C205.447 64.0003 217.884 74.5943 227.427 74.5943H227.506C228.948 74.5858 230.559 74.4186 231.557 73.2506C232.275 72.4105 232.513 71.2673 232.285 69.7569Z" fill="#2D3C52"/>
<path d="M229.858 151.423C221.59 151.423 213.032 155.429 206.378 162.413C206.092 162.714 205.955 163.127 206.008 163.539C206.061 163.951 206.296 164.319 206.648 164.539C210.716 167.076 215.525 168.417 220.556 168.417C229.177 168.417 237.799 164.456 243.619 157.82C243.873 157.531 243.995 157.148 243.955 156.765C243.914 156.382 243.717 156.035 243.41 155.802C239.592 152.939 234.905 151.423 229.858 151.423Z" fill="#2D3C52"/>
<path d="M176.736 213.443C164.366 209.763 152.002 206.056 139.638 202.359C138.907 202.141 138.305 201.689 138.293 201.352C138.282 201.015 138.837 200.485 139.531 200.168C140.728 199.619 141.924 199.066 143.135 198.552C148.041 196.466 152.865 194.122 157.904 192.427C161.408 191.248 163.225 189.539 162.602 185.951C162.472 185.199 161.717 184.864 161.022 185.179C155.173 187.834 149.353 190.551 143.448 193.073C139.822 194.623 136.274 197.323 131.956 194.689C131.726 194.549 131.37 194.508 131 194.516C130.629 194.508 130.273 194.549 130.043 194.689C125.725 197.323 122.177 194.623 118.55 193.073C112.646 190.551 106.826 187.834 100.977 185.179C100.281 184.864 99.5267 185.199 99.3967 185.951C98.7733 189.539 100.591 191.249 104.095 192.427C109.134 194.123 113.957 196.465 118.864 198.552C120.075 199.068 121.27 199.619 122.467 200.168C123.161 200.485 123.717 201.015 123.706 201.352C123.695 201.689 123.092 202.14 122.361 202.359C109.995 206.057 97.6329 209.764 85.2633 213.443C80.9674 214.72 77.4073 218.706 76.3802 223.446C76.2185 224.193 76.6801 224.633 77.3242 224.411C77.7221 224.274 78.1065 224.139 78.485 223.991C92.5009 218.515 106.524 213.057 120.522 207.534C123.444 206.381 126.152 204.871 129.377 207.014C129.595 207.159 129.866 207.22 130.171 207.231C130.631 207.248 131.368 207.248 131.827 207.231C132.131 207.22 132.403 207.159 132.622 207.014C135.847 204.871 138.554 206.381 141.476 207.534C155.473 213.057 169.497 218.515 183.514 223.991C183.892 224.139 184.276 224.274 184.674 224.411C185.319 224.633 185.78 224.193 185.618 223.446C184.592 218.706 181.032 214.721 176.736 213.443Z" fill="#2D3C52"/>
<path d="M131.36 130.6C130.16 130.6 129.32 130.2 128.84 129.4L101.84 68.32H101.48L101.72 115.96C101.8 118.12 101.96 119.8 102.2 121C102.44 122.12 103.08 123.12 104.12 124C105.24 124.8 106.96 125.2 109.28 125.2H110C110.8 125.2 111.36 125.36 111.68 125.68C112.08 125.92 112.32 126.6 112.4 127.72C112.4 128.44 112.2 129.08 111.8 129.64C111.48 130.12 110.96 130.36 110.24 130.36L107.24 130.24C103.56 130.08 100.92 130 99.32 130C96.6 130 92.64 130.12 87.44 130.36C86.72 130.36 86.16 130.12 85.76 129.64C85.44 129.08 85.28 128.44 85.28 127.72C85.36 126.52 85.6 125.8 86 125.56C86.4 125.32 87.16 125.2 88.28 125.2C90.6 125.2 92.28 124.8 93.32 124C94.44 123.12 95.12 122.12 95.36 121C95.6 119.8 95.76 118.12 95.84 115.96L96.08 68.32C96.08 65.84 95.8 64 95.24 62.8C94.68 61.52 93.84 60.64 92.72 60.16C91.68 59.6 90.12 59.12 88.04 58.72C87.72 58.64 87.24 58.56 86.6 58.48C85.96 58.32 85.52 58.08 85.28 57.76C85.12 57.36 85.04 56.76 85.04 55.96C85.04 55 85.28 54.36 85.76 54.04C86.32 53.72 87.16 53.56 88.28 53.56C93 53.56 96.88 53.88 99.92 54.52C102.96 55.08 105.6 56.28 107.84 58.12C110.16 59.96 112.08 62.68 113.6 66.28L134.24 112.6H134.6L158.24 54.28H165.08C169.48 54.28 174.24 54.16 179.36 53.92C180.08 53.92 180.6 54.2 180.92 54.76C181.32 55.24 181.52 55.84 181.52 56.56C181.44 57.76 181.16 58.48 180.68 58.72C180.28 58.96 179.56 59.08 178.52 59.08C176.2 59.08 174.48 59.52 173.36 60.4C172.24 61.2 171.52 62.24 171.2 63.52C170.96 64.72 170.8 66.32 170.72 68.32V115.96C170.8 117.96 170.96 119.6 171.2 120.88C171.52 122.08 172.24 123.12 173.36 124C174.48 124.8 176.2 125.2 178.52 125.2H179.24C179.96 125.2 180.48 125.36 180.8 125.68C181.2 125.92 181.44 126.6 181.52 127.72C181.52 128.44 181.32 129.08 180.92 129.64C180.6 130.12 180.08 130.36 179.36 130.36C174.24 130.12 169.44 130 164.96 130C160.32 130 155.4 130.12 150.2 130.36C149.48 130.36 148.92 130.12 148.52 129.64C148.2 129.08 148.04 128.44 148.04 127.72C148.12 126.52 148.36 125.8 148.76 125.56C149.16 125.32 149.92 125.2 151.04 125.2C153.36 125.2 155.08 124.8 156.2 124C157.32 123.12 158 122.08 158.24 120.88C158.56 119.6 158.76 117.96 158.84 115.96V68.32H158.48L133.76 129.4C133.44 130.2 132.64 130.6 131.36 130.6Z" fill="#F85F07"/>
</svg>
